<svg xmlns="http://www.w3.org/2000/svg" viewBox="0 0 1212.29 22.78"><defs><style>.cls-1{fill:#fff;}</style></defs><title>arrow</title><g id="Layer_2" data-name="Layer 2"><g id="Layer_1-2" data-name="Layer 1"><g id="end"><path class="cls-1" d="M36.72,13.82a14.65,14.65,0,0,0-4.9,1,7.74,7.74,0,0,0-4.53,4.14c-1.59-2.27-5-4.24-10.15-5.78a63,63,0,0,0-7.85-1.77,62.67,62.67,0,0,0,7.85-1.77c5.13-1.54,8.56-3.51,10.15-5.78C29,7.81,33.88,9,36.72,9a.79.79,0,0,0,0-1.59c-.34,0-8.42-.09-8.42-6.57a.79.79,0,0,0-1.59,0c0,2.76-3.56,5.36-10,7.3A63.38,63.38,0,0,1,.79,10.59a.79.79,0,1,0,0,1.59,63.46,63.46,0,0,1,15.89,2.5c6.47,1.94,10,4.53,10,7.3a.79.79,0,0,0,1.59,0c0-6.48,8.07-6.58,8.42-6.58a.79.79,0,0,0,0-1.59Z"/><path class="cls-1" d="M26.46,9.46A.8.8,0,0,0,25.11,9s-1.77,1.62-6.82,1.62a.79.79,0,1,0,0,1.59c5,0,6.8,1.6,6.81,1.61a.79.79,0,0,0,1.35-.48h0a11.37,11.37,0,0,1,4.24-1.4H1182.26a9.91,9.91,0,0,1,3.57,1.42.8.8,0,0,0,1.34.48s1.77-1.62,6.82-1.62a.79.79,0,1,0,0-1.59c-5,0-6.8-1.6-6.81-1.61a.79.79,0,0,0-1.35.48h0a11.68,11.68,0,0,1-4.38,1.43H30.13A10.15,10.15,0,0,1,26.46,9.46Z"/><path class="cls-1" d="M1212.06,10.83a.79.79,0,0,0-.56-.23,63.46,63.46,0,0,1-15.89-2.5c-6.47-1.94-10-4.53-10-7.3a.79.79,0,0,0-1.59,0c0,6.48-8.07,6.58-8.42,6.58a.79.79,0,0,0,0,1.59,14.65,14.65,0,0,0,4.9-1A7.74,7.74,0,0,0,1185,3.84c1.59,2.27,5,4.24,10.15,5.78a63,63,0,0,0,7.85,1.77,62.67,62.67,0,0,0-7.85,1.77c-5.13,1.54-8.56,3.51-10.15,5.78-1.68-4-6.59-5.12-9.43-5.12a.79.79,0,0,0,0,1.59c.34,0,8.42.09,8.42,6.57a.79.79,0,0,0,1.59,0c0-2.76,3.56-5.36,10-7.3a63.38,63.38,0,0,1,15.89-2.5.79.79,0,0,0,.56-1.36Z"/></g></g></g></svg>